<svg xmlns="http://www.w3.org/2000/svg" width="128" height="128" viewBox="0 0 128 128" fill="none" role="img" aria-labelledby="title">
  <title id="title">QR scan</title>
  <path d="M22 44V26a4 4 0 0 1 4-4h18M84 22h18a4 4 0 0 1 4 4v18M106 84v18a4 4 0 0 1-4 4H84M44 106H26a4 4 0 0 1-4-4V84" stroke="#1B72E8" stroke-width="8" stroke-linecap="round"/>
  <rect x="40" y="40" width="14" height="14" stroke="#101828" stroke-width="6"/>
  <rect x="74" y="40" width="14" height="14" stroke="#101828" stroke-width="6"/>
  <rect x="40" y="74" width="14" height="14" stroke="#101828" stroke-width="6"/>
  <path d="M70 70h8v8h-8v-8zm16 0h8v8h-8v-8zM70 86h8v8h-8v-8zm8-8h8v8h-8v-8z" fill="#101828"/>
</svg>
