<svg xmlns="http://www.w3.org/2000/svg" width="480" height="128" viewBox="0 0 480 128" role="img" aria-labelledby="title desc">
  <title id="title">ExitPass logo</title>
  <desc id="desc">ExitPass WebPay placeholder wordmark.</desc>
  <rect width="480" height="128" rx="0" fill="none"/>
  <g transform="translate(24 24)">
    <path d="M6 10c0-5.5 4.5-10 10-10h60c5.5 0 10 4.5 10 10v14H34v16h42v16H34v16h52v14c0 5.5-4.5 10-10 10H16c-5.5 0-10-4.5-10-10V10z" fill="#0B1F3A"/>
    <path d="M33 40h31l-12-12h25l24 20-24 20H52l12-12H33V40z" fill="#1B72E8"/>
    <text x="112" y="64" font-family="Inter, Arial, sans-serif" font-size="58" font-weight="800" fill="#0B1F3A">Exit</text>
    <text x="244" y="64" font-family="Inter, Arial, sans-serif" font-size="58" font-weight="800" fill="#1B72E8">Pass</text>
  </g>
</svg>
